<?xml version="1.0" encoding="UTF-8"?>
<svg width="447px" height="295px" viewBox="0 0 447 295" version="1.1" xmlns="http://www.w3.org/2000/svg" xmlns:xlink="http://www.w3.org/1999/xlink">
    <!-- Generator: Sketch 50.2 (55047) - http://www.bohemiancoding.com/sketch -->
    <title>Combined Shape</title>
    <desc>Created with Sketch.</desc>
    <defs></defs>
    <g id="用户中心" stroke="none" stroke-width="1" fill="none" fill-rule="evenodd">
        <g id="用友中文标识" fill="#FFFFFF" fill-rule="nonzero">
            <path d="M203.963482,238.028125 C204.83615,238.028125 205.031046,238.730691 204.740157,239.289638 C204.456055,239.845674 176.285358,294.799128 176.285358,294.799128 L164.377317,294.799128 C162.736701,294.799128 161.674955,293.603602 162.510777,291.922878 C162.727005,291.495905 171.062925,275.311661 171.062925,275.311661 C171.062925,275.311661 154.410478,239.215888 154.252428,238.829671 C154.097287,238.446365 154.233035,238.028125 154.816753,238.028125 L165.701833,238.028125 C167.856354,238.028125 169.238079,238.910214 170.094263,240.617138 C170.493751,241.396365 177.928883,257.06824 177.928883,257.06824 C178.473816,258.342368 179.799302,258.486957 180.438289,257.06824 C180.438289,257.06824 188.864384,240.549211 189.144608,240.017434 C189.824319,238.718076 190.722198,238.028125 192.683762,238.028125 L203.963482,238.028125 Z M348.92054,238.028125 C349.790299,238.028125 349.988104,238.730691 349.703032,239.289638 C349.412143,239.845674 321.240477,294.799128 321.240477,294.799128 L309.336314,294.799128 C307.695698,294.799128 306.645588,293.603602 307.47947,291.922878 C307.684063,291.495905 316.023861,275.311661 316.023861,275.311661 C316.023861,275.311661 299.370444,239.215888 299.212395,238.829671 C299.049497,238.446365 299.19785,238.028125 299.774781,238.028125 L310.655013,238.028125 C312.810503,238.028125 314.207742,238.910214 315.055199,240.617138 C315.453718,241.396365 322.894668,257.06824 322.894668,257.06824 C323.421178,258.342368 324.75636,258.486957 325.395347,257.06824 C325.395347,257.06824 333.818533,240.549211 334.102635,240.017434 C334.786225,238.718076 335.680225,238.028125 337.63985,238.028125 L348.92054,238.028125 Z M388.872159,242.110673 C392.868979,245.659406 394.874176,250.301775 394.874176,256.049423 C394.874176,260.544291 392.684749,266.362778 388.695686,269.911512 C384.409916,273.64462 378.652246,275.601906 371.064881,275.601906 C364.005966,275.601906 357.562766,273.738748 353.364263,269.993025 C349.737842,266.757729 347.352549,261.798041 347.352549,256.049423 C347.352549,251.388617 349.598215,245.729275 353.597944,242.184423 C357.81584,238.448403 363.471699,236.504702 371.064881,236.504702 C378.652246,236.504702 384.58251,238.369801 388.872159,242.110673 Z M378.660972,259.698107 C382.535619,252.340574 381.974202,247.24115 376.817703,244.997597 C371.723261,242.777334 367.172781,245.477942 363.471699,252.406561 C359.55051,259.735952 360.10417,264.978995 365.311089,267.107071 C370.564551,269.245821 375.116,266.411298 378.660972,259.698107 Z M244.022051,242.110673 C248.02275,245.659406 250.025038,250.301775 250.025038,256.049423 C250.025038,260.544291 247.835611,266.362778 243.843639,269.911512 C239.559808,273.64462 233.804077,275.601906 226.213804,275.601906 C219.158767,275.601906 212.713628,273.738748 208.515125,269.993025 C204.888704,266.757729 202.502442,261.798041 202.502442,256.049423 C202.502442,251.388617 204.748108,245.729275 208.748806,242.184423 C212.963793,238.448403 218.622561,236.504702 226.213804,236.504702 C233.804077,236.504702 239.731433,238.369801 244.022051,242.110673 Z M233.811834,259.698107 C237.68745,252.340574 237.126034,247.24115 231.966626,244.997597 C226.871214,242.777334 222.323643,245.477942 218.622561,252.406561 C214.700403,259.735952 215.254062,264.978995 220.460982,267.107071 C225.714444,269.245821 230.265893,266.411298 233.811834,259.698107 Z M256.14089,239.899725 C282.932771,232.326765 298.557409,238.136518 298.557409,250.362521 L298.557409,274.624331 L285.435389,274.624331 C284.037181,274.624331 283.372014,273.85966 283.372014,272.638903 L283.372014,249.739528 C283.372014,245.954018 277.683187,243.528031 268.824636,245.858919 L268.824636,272.542834 C268.824636,273.776206 268.05281,274.624331 266.707931,274.624331 L253.653786,274.624331 L253.653786,274.690317 L253.554884,274.624331 L253.554884,243.658064 C253.554884,241.760942 254.637962,240.393656 256.14089,239.899725 Z M443.303378,238.028125 L443.407128,238.028125 L443.407128,268.993421 C443.407128,270.888602 442.318233,272.257829 440.818213,272.756612 C414.03312,280.325691 398.402664,274.514967 398.402664,262.289934 L398.402664,238.028125 L411.523714,238.028125 C412.931619,238.028125 413.581272,238.795707 413.581272,240.009671 L413.581272,262.909046 C413.581272,266.690674 419.273007,269.124424 428.132528,266.788684 L428.132528,240.118355 C428.132528,238.873339 428.907263,238.028125 430.249233,238.028125 L443.303378,238.028125 Z M197.655449,10.6442599 C205.297113,10.6442599 212.171798,11.7165461 212.171798,24.9042105 L212.171798,188.988257 C212.171798,194.717467 209.419015,197.472418 207.086082,198.796036 C204.655217,200.177878 202.205928,200.200197 201.973217,200.200197 L160.701833,200.200197 C160.535056,200.228339 160.338221,200.245806 160.127811,200.245806 C157.147165,200.245806 154.115128,198.280757 154.115128,194.543766 L154.115128,179.361941 C154.115128,176.87773 155.165239,173.883092 160.022121,173.883092 L175.109584,173.883092 C176.426343,173.883092 176.426343,172.985477 176.426343,172.512895 L176.426343,144.386003 L128.514924,144.367566 L128.514924,184.130461 C128.514924,187.737418 126.251805,189.176513 124.285393,189.36477 L123.676464,189.392911 L98.4835054,189.392911 C96.4540672,189.392911 93.1010824,188.172155 93.1010824,184.130461 L93.1010824,144.08324 L44.6010976,144.08324 C42.3699761,163.767697 39.9032343,184.76801 34.7486746,195.618964 L34.6575293,195.816924 C34.0408438,196.827105 31.7079111,200.228339 27.05659,200.228339 L4.76379826,200.228339 C2.7750846,200.228339 1.63673753,199.344309 1.05204989,198.600016 C-0.393670282,196.81352 0.0261800434,194.386562 0.161928416,193.879046 L0.245316703,193.680115 C3.7592603,182.97278 11.9623406,152.875987 11.9623406,105.43727 L11.9623406,20.6315625 C11.9623406,13.5913487 17.4029414,10.8470724 22.4576291,10.6442599 L197.655449,10.6442599 Z M128.514924,37.8308388 L128.514924,64.0479934 L176.426343,64.0479934 L176.426343,43.2737829 C176.426343,39.235 174.343575,37.8308388 170.947926,37.8308388 L128.514924,37.8308388 Z M93.1010824,118.648224 C93.1010824,118.648224 93.1088395,91.0045888 93.1010824,90.8978454 L45.5736377,90.8978454 L45.5736377,117.403207 L93.1010824,117.403207 C93.1088395,117.323635 93.0186638,118.979128 93.1010824,118.648224 Z M50.2346551,37.8308388 C45.0015553,37.8308388 45.5397007,43.6163322 45.5397007,43.6163322 L45.5397007,64.0479934 L93.1010824,64.0479934 C93.0710239,63.9849178 93.1088395,37.8803289 93.1010824,37.8114309 L50.2346551,37.8308388 Z M128.514924,117.403207 L177.243742,117.403207 L177.243742,90.8978454 L128.514924,90.8978454 L128.514924,117.403207 Z M307.598056,21.6121464 L441.144397,21.6121464 C444.223946,21.6121464 446.71202,24.108972 446.71202,27.1783306 L446.71202,42.8472944 C446.71202,45.9302385 444.223946,48.4299753 441.144397,48.4299753 L304.767703,48.4299753 C304.051145,54.3755839 303.22502,60.7549589 302.272842,67.4458306 L413.881275,67.4458306 C421.977696,67.4458306 430.367915,71.1313898 430.367915,81.3874918 C430.367915,103.642525 411.387384,131.18815 388.702861,154.14866 C396.328041,159.941916 404.233445,165.094712 412.270718,169.525535 C417.872278,171.761324 422.008725,174.272706 436.603614,174.272706 L439.008299,174.272706 C441.239421,174.272706 443.407516,175.166439 443.407516,178.473544 L443.407516,196.13764 C443.407516,199.520436 440.489896,201.032311 437.84959,201.032311 L423.507774,201.032311 C405.549234,201.032311 392.211957,192.940189 393.995108,194.105633 C397.545898,196.484071 383.641386,190.426867 364.740364,175.699186 C353.283202,184.826719 342.189651,192.052278 333.245772,196.217212 C327.801293,198.785847 321.098232,200.178363 315.632421,200.178363 L300.255039,200.178363 C297.179369,200.178363 295.277922,199.23514 295.277922,195.363265 L295.277922,179.74185 C295.277922,176.500732 296.191315,173.882607 300.521688,173.882607 L307.183054,173.882607 C309.965896,173.882607 314.890653,173.07815 318.430777,171.622558 C325.557566,168.689054 333.923544,162.920058 342.369033,155.808035 C330.426085,143.708183 318.351267,128.749548 308.477512,110.88264 C307.901551,109.565814 308.157534,107.66287 310.998553,107.66287 L341.855128,107.66287 C341.855128,107.66287 344.50513,107.66287 346.075933,109.930683 C351.953837,118.333331 358.46782,126.178002 365.437529,133.42685 C379.280954,118.216883 389.746184,103.208758 389.746184,97.5280674 C389.746184,94.208347 387.722564,94.3480839 386.520221,94.3480839 L297.981254,94.3480839 C291.642774,129.955748 281.932887,168.674498 267.258488,194.511258 L266.861909,195.163363 C263.932653,199.608742 259.267757,200.178363 257.862761,200.227854 L235.624269,200.227854 C233.050868,200.199712 231.840768,199.050765 231.25608,198.094926 C229.842358,195.759186 230.924466,192.6481 231.618722,191.501094 C254.078291,155.332541 265.028336,91.2253536 270.072358,48.4299753 L238.007623,48.4299753 C234.918377,48.4299753 232.403154,45.9302385 232.403154,42.8472944 L232.403154,27.1783306 C232.403154,24.108972 234.918377,21.6121464 238.007623,21.6121464 L272.794113,21.6121464 C273.66872,11.2842352 273.98482,5.05430099 273.98482,5.05430099 C274.293163,3.30370888 276.027833,0.000485197368 280.433837,0.000485197368 L303.127087,0.000485197368 C303.422824,0.000485197368 305.981681,0.0587088816 307.635872,2.02375822 C308.396063,2.90778783 309.196978,4.47497533 308.759675,7.01837993 C308.759675,7.01837993 308.421273,12.4642352 307.598056,21.6121464 Z" id="Combined-Shape"></path>
        </g>
    </g>
</svg>